<svg xmlns="http://www.w3.org/2000/svg" viewBox="0 0 200.01 254.3"><defs><style>.cls-1{fill:#004098;}.cls-2{fill:#fff200;}</style></defs><title>アセット 1</title><g id="レイヤー_2" data-name="レイヤー 2"><g id="レイヤー_1-2" data-name="レイヤー 1"><rect class="cls-1" y="66.65" width="66.66" height="133.35"/><polyline class="cls-2" points="0 0 0 66.65 66.66 66.65 66.66 200.01 133.35 200.01 133.35 66.65 200 66.65 200 0 0 0"/><rect class="cls-1" x="133.35" y="66.65" width="66.66" height="133.35"/><path d="M159.63,222v21.1C157.17,240,145.14,222,145.14,222h-5.82v31.43h5.82V232.5c2.45,3.19,14.47,20.95,14.47,20.95h5.85V222h-5.83"/><path d="M77.23,232c0-4.8-3.13-9.94-12-9.94H55.16v31.43H61V241.67h4.25c8.82,0,12-5.2,12-9.71M61,227.22h4.23c5.12,0,5.68,3.19,5.68,4.53,0,2.95-2.2,4.72-5.9,4.72H61Z"/><rect x="120.27" y="222.03" width="6.1" height="31.46"/><rect x="28.32" y="238.46" width="16.68" height="5.55"/><polyline points="174.89 222.04 174.89 227.6 184.36 227.6 184.36 253.49 190.47 253.49 190.47 227.6 199.95 227.6 199.95 222.04 174.89 222.04"/><polyline points="0 222.04 0 227.6 9.47 227.6 9.47 253.49 15.58 253.49 15.58 227.6 25.06 227.6 25.06 222.04 0 222.04"/><path d="M97.39,254.3c-9.36,0-13.93-6.65-13.93-16S88.14,222,97.55,222s13.9,6.86,13.9,16.2S106.7,254.3,97.39,254.3m0-26.79c-5.77,0-7.78,5.5-7.78,10.59,0,5.3,1.75,10.75,7.78,10.75s7.93-5.41,7.93-10.75S103.31,227.51,97.39,227.51Z"/></g></g></svg>