<svg xmlns="http://www.w3.org/2000/svg" viewBox="0 0 436.49 49.03"><defs><style>.cls-1{fill:#004098;}.cls-2{fill:#fff200;}.cls-3{fill:#231815;}.cls-4{fill:#636762;}.cls-5{fill:#0075be;}</style></defs><title>Tpoint</title><g id="レイヤー_2" data-name="レイヤー 2"><g id="レイヤー_1-2" data-name="レイヤー 1"><rect class="cls-1" x="191.38" y="18.17" width="13.95" height="27.91"/><polyline class="cls-2" points="191.38 4.22 191.38 18.18 205.33 18.18 205.33 46.09 219.29 46.09 219.29 18.18 233.24 18.18 233.24 4.22 191.38 4.22"/><rect class="cls-1" x="219.29" y="18.17" width="13.95" height="27.91"/><path d="M397.33,15.58v20.5C395,33,383.26,15.58,383.26,15.58h-5.65V46.1h5.65V25.76c2.38,3.09,14.05,20.34,14.05,20.34H403V15.58h-5.66"/><path d="M317.32,25.24c0-4.67-3-9.66-11.62-9.66h-9.81V46.1h5.7V34.66h4.13c8.56,0,11.6-5,11.6-9.42m-15.73-4.61h4.11c5,0,5.51,3.1,5.51,4.4,0,2.86-2.13,4.58-5.73,4.58h-3.89Z"/><rect x="359.12" y="15.59" width="5.93" height="30.55"/><rect x="269.82" y="31.55" width="16.2" height="5.38"/><polyline points="412.15 15.6 412.15 21 421.35 21 421.35 46.14 427.28 46.14 427.28 21 436.49 21 436.49 15.6 412.15 15.6"/><polyline points="242.32 15.6 242.32 21 251.52 21 251.52 46.14 257.45 46.14 257.45 21 266.66 21 266.66 15.6 242.32 15.6"/><path d="M336.89,46.92c-9.08,0-13.52-6.45-13.52-15.51s4.54-15.81,13.68-15.81,13.5,6.66,13.5,15.73-4.61,15.59-13.66,15.59m0-26c-5.59,0-7.55,5.33-7.55,10.27,0,5.15,1.7,10.45,7.55,10.45s7.71-5.25,7.71-10.45S342.65,20.92,336.89,20.92Z"/><path class="cls-3" d="M20,46h1.9v1.21H18.42V41.71H20Z"/><path class="cls-3" d="M27.21,45.32c0,1.26-1.16,2-2.48,2s-2.49-.71-2.49-2,1.16-2,2.49-2S27.21,44.05,27.21,45.32Zm-3.43,0a1,1,0,0,0,1.89,0,1,1,0,0,0-1.89,0Z"/><path class="cls-3" d="M27.11,43.46H28.8l1.11,1.9L31,43.46h1.66L29.34,49H27.7l1.41-2.36Z"/><path class="cls-3" d="M37.18,47.18H35.72v-.42h0a1.53,1.53,0,0,1-1.25.54,2,2,0,1,1,0-4,1.79,1.79,0,0,1,1.29.49v-.36h1.46Zm-3.3-1.86a.95.95,0,0,0,1.88,0,.95.95,0,0,0-1.88,0Z"/><path class="cls-3" d="M39.62,47.18H38.16v-6h1.46Z"/><path class="cls-3" d="M42.19,47.18H40.73V44.54h-.48V43.46h.48V42.34h1.46v1.12H43v1.08h-.83Z"/><path class="cls-3" d="M43.37,43.46h1.69l1.11,1.9,1.08-1.9h1.66L45.6,49H44l1.41-2.36Z"/><path class="cls-3" d="M51.9,41.71h1.56l1.23,2.92L56,41.71h1.57l.92,5.47H56.91L56.46,44h0L55,47.18h-.63L53,44h0l-.51,3.15H50.87Z"/><path class="cls-3" d="M63.8,47.18H62.34v-.42h0a1.51,1.51,0,0,1-1.25.54,2,2,0,1,1,0-4,1.78,1.78,0,0,1,1.28.49v-.36H63.8Zm-3.3-1.86a1,1,0,0,0,1.89,0,1,1,0,0,0-1.89,0Z"/><path class="cls-3" d="M66.24,44.06h0a1.5,1.5,0,0,1,1.34-.66h.28v1.27a1.3,1.3,0,0,0-.62-.12c-.81,0-1,.49-1,1.12v1.51H64.78V43.46h1.46Z"/><path class="cls-3" d="M69.89,44.8l1.53-1.34h2l-2.07,1.71,2.2,2h-2l-1.61-1.52v1.52H68.43v-6h1.46Z"/><path class="cls-3" d="M77.9,45.54H74.81c0,.53.31.82.92.82a.75.75,0,0,0,.7-.34h1.41a2,2,0,0,1-2.1,1.28c-1.37,0-2.4-.7-2.4-2a2,2,0,0,1,2.29-2A2,2,0,0,1,77.9,45.4Zm-1.37-.76a.8.8,0,0,0-.83-.59.82.82,0,0,0-.87.59Z"/><path class="cls-3" d="M80.17,47.18H78.7V44.54h-.47V43.46h.47V42.34h1.47v1.12H81v1.08h-.83Z"/><path class="cls-3" d="M83.34,42a.82.82,0,1,1-.82-.74A.79.79,0,0,1,83.34,42Zm-.09,5.15H81.79V43.46h1.46Z"/><path class="cls-3" d="M85.69,43.93h0a1.48,1.48,0,0,1,1.32-.6,1.39,1.39,0,0,1,1.56,1.55v2.3H87.11V45.36c0-.35.07-1-.66-1s-.76.4-.76.87v1.93H84.22V43.46h1.47Z"/><path class="cls-3" d="M93.92,46.81c0,1.58-.87,2.22-2.39,2.22-1,0-2.22-.44-2.35-1.42h1.64a.44.44,0,0,0,.27.28,1.06,1.06,0,0,0,.42.09c.79,0,.95-.46.95-1.07v-.17a1.83,1.83,0,0,1-1.32.51,1.91,1.91,0,0,1-2-1.9,2,2,0,0,1,2.12-2,1.48,1.48,0,0,1,1.22.52h0v-.39h1.46Zm-3.3-1.52a.95.95,0,0,0,1.88,0,.95.95,0,0,0-1.88,0Z"/><path class="cls-3" d="M99.68,43.11a1.81,1.81,0,0,0-1-.36c-.29,0-.68.15-.68.46s.43.44.7.52l.4.11c.85.22,1.5.61,1.5,1.49a1.75,1.75,0,0,1-.63,1.48,2.86,2.86,0,0,1-1.72.51,4.05,4.05,0,0,1-2.14-.62l.68-1.15a2.28,2.28,0,0,0,1.4.57c.37,0,.77-.17.77-.55s-.62-.54-1-.63c-1-.25-1.65-.48-1.65-1.54a1.89,1.89,0,0,1,2.1-1.84,4.61,4.61,0,0,1,1.9.45Z"/><path class="cls-3" d="M106.11,45.32c0,1.26-1.16,2-2.49,2s-2.49-.71-2.49-2,1.16-2,2.49-2S106.11,44.05,106.11,45.32Zm-3.43,0a1,1,0,0,0,1.89,0,1,1,0,0,0-1.89,0Z"/><path class="cls-3" d="M108.24,47.18h-1.47v-6h1.47Z"/><path class="cls-3" d="M110.65,43.46v2c0,.47.13.81.73.81s.74-.34.74-.81v-2h1.46V45.7c0,1.22-1,1.6-2.2,1.6s-2.2-.38-2.2-1.6V43.46Z"/><path class="cls-3" d="M116.12,47.18h-1.47V44.54h-.47V43.46h.47V42.34h1.47v1.12H117v1.08h-.83Z"/><path class="cls-3" d="M119.29,42a.82.82,0,1,1-.82-.74A.79.79,0,0,1,119.29,42Zm-.08,5.15h-1.47V43.46h1.47Z"/><path class="cls-3" d="M124.85,45.32c0,1.26-1.16,2-2.49,2s-2.49-.71-2.49-2,1.16-2,2.49-2S124.85,44.05,124.85,45.32Zm-3.44,0a1,1,0,0,0,1.89,0,1,1,0,0,0-1.89,0Z"/><path class="cls-3" d="M127,43.93h0a1.48,1.48,0,0,1,1.32-.6,1.39,1.39,0,0,1,1.56,1.55v2.3H128.4V45.36c0-.35.06-1-.66-1s-.77.4-.77.87v1.93h-1.46V43.46H127Z"/><path class="cls-3" d="M133.24,44.41a1.94,1.94,0,0,0-.79-.18c-.17,0-.46.07-.46.26s.46.29.66.32c.69.12,1.2.41,1.2,1.1,0,1-1,1.39-1.95,1.39a3.42,3.42,0,0,1-1.66-.43l.53-.92a2.53,2.53,0,0,0,1.16.38c.18,0,.46-.08.46-.29s-.46-.3-.92-.41-.92-.31-.92-1c0-.91.92-1.32,1.82-1.32a3.64,3.64,0,0,1,1.36.24Z"/><path class="cls-4" d="M140.55,24.06,149.7,11.6h-7l-5.06,7.31-5-7.31h-7L134.76,24V34.83h0v1A142.23,142.23,0,0,0,116.27,31V15.88h8.39V11.6H102.09v4.28h8.39V30q-5.55-.9-11.47-1.5V11.6h0a4.24,4.24,0,0,1-5.76,0h0V28c-1.78-.13-3.59-.25-5.41-.34v-16H82V25.8L69.68,11.6H64.36V27.7c-1.84.1-3.65.23-5.44.37V11.6h0A4.19,4.19,0,0,1,56,12.73a4.24,4.24,0,0,1-2.88-1.13h0v17c-2,.22-4.07.48-6.06.76l-.51-1.14c-1-2.33-2.16-3.75-3.33-4.28q4-1.84,4-5.68a6.2,6.2,0,0,0-2.11-4.73,7.67,7.67,0,0,0-5.47-2H29.29V32.9c-4,1.05-7.82,2.23-11.31,3.52V34.35h0V15.88h8.39V11.6H3.8v4.26h8.41V38.78h0v0A52.31,52.31,0,0,0,0,46.25l.71-.43L1,45.63c.14-.07.27-.15.4-.23l.43-.23L2.19,45l.49-.27L3,44.58l.55-.29.22-.11.62-.31.17-.09.67-.32.14-.07L6,43.05l.11,0,.75-.35.09,0,.79-.35.06,0,.83-.35,0,0,.86-.36h0l.89-.35h0c.91-.36,1.83-.71,2.79-1h0c1.52-.55,3.1-1.08,4.72-1.58h0c1.11-.35,2.26-.69,3.42-1l.11,0c1.17-.32,2.36-.64,3.58-.94h0L27,36.08H27c1.23-.29,2.49-.57,3.77-.84h.05l1.95-.39h0l2.28-.43h0l1.64-.28.26,0c1.12-.19,2.26-.37,3.41-.54l.37-.06c4-.58,8.07-1.06,12.29-1.42h0c3.66-.31,7.41-.53,11.23-.66h0c1.91-.07,3.84-.11,5.79-.13h4.72l2.54,0h0q5.26.11,10.37.45h0l2.65.19h.12q4.29.33,8.43.82h.13l2.53.32.52.07c1.34.18,2.66.37,4,.57l.21,0c1.38.21,2.75.44,4.09.68h0q3.13.55,6.12,1.2h0l1.92.43h0l1.86.44.08,0,1.78.44.12,0,1.71.44.18,0,1.61.44.24.07,1.53.44.31.09,1.42.44.38.12,1.31.42.47.15,1.2.41.55.19,1.08.38.64.24,1,.35.74.29.82.32.91.37.61.25,1.49.64V34.34h0ZM35.08,31.52V25.41h1.64a3.09,3.09,0,0,1,2.13.91,13.23,13.23,0,0,1,2.36,4C39.12,30.69,37.07,31.09,35.08,31.52Zm5.33-11.07a3.6,3.6,0,0,1-2.3.68h-3V15.88H38q3.27,0,3.27,2.61A2.39,2.39,0,0,1,40.41,20.45Zm29.74,7V20l6.37,7.42C74.38,27.37,72.25,27.4,70.15,27.46Z"/><path class="cls-5" d="M59.67,3.65A3.65,3.65,0,1,1,56,0,3.65,3.65,0,0,1,59.67,3.65Z"/><path class="cls-5" d="M79.69,3.65A3.65,3.65,0,1,1,76,0,3.65,3.65,0,0,1,79.69,3.65Z"/><path class="cls-5" d="M99.77,3.65A3.65,3.65,0,1,1,96.12,0,3.66,3.66,0,0,1,99.77,3.65Z"/><rect x="166.56" y="21.42" width="4.27" height="26.94" transform="translate(24.74 129.51) rotate(-45)"/><rect x="155.23" y="32.76" width="26.94" height="4.27" transform="translate(24.74 129.51) rotate(-45)"/></g></g></svg>