<svg xmlns="http://www.w3.org/2000/svg" viewBox="0 0 1420.25 760"><defs><style>.cls-1{fill:#fafafa;}</style></defs><title>アセット 2</title><g id="レイヤー_2" data-name="レイヤー 2"><g id="レイヤー_1-2" data-name="レイヤー 1"><path class="cls-1" d="M8.13,2.57H54.74V116.28H127.5v37.15H8.13Z"/><path class="cls-1" d="M142.83,78.1q0-36.93,20.58-57.52T220.73,0q37.65,0,58,20.22t20.38,56.65q0,26.44-8.9,43.37a63.4,63.4,0,0,1-25.73,26.34Q247.68,156,222.58,156q-25.53,0-42.24-8.13t-27.12-25.73Q142.82,104.54,142.83,78.1Zm46.61.21q0,22.85,8.49,32.82t23.1,10q15,0,23.26-9.78t8.23-35.09q0-21.3-8.59-31.13T220.62,35.3q-14.1,0-22.64,10T189.44,78.31Z"/><path class="cls-1" d="M309,2.57h51.78l30.4,50.89L421.64,2.57h51.5L414.49,90.25v63.18H367.77V90.25Z"/><path class="cls-1" d="M580.91,128.52H528l-7.35,24.91H473L529.74,2.57h50.85l56.68,150.86H588.46ZM571.24,95.9,554.59,41.68,538.11,95.9Z"/><path class="cls-1" d="M652.09,2.57H698.7V116.28h72.76v37.15H652.09Z"/><path class="cls-1" d="M782.06,2.57H923.75V39.82H876.21V153.43H829.6V39.82H782.06Z"/><path class="cls-1" d="M929.62,2.57H981.4l30.39,50.89,30.46-50.89h51.5l-58.66,87.68v63.18H988.37V90.25Z"/><path class="cls-1" d="M7.61,304.57H68.92l23.64,91.79L116,304.57H177.3V455.43H139.12v-115L109.71,455.43H75.15l-29.36-115V455.43H7.61Z"/><path class="cls-1" d="M299.78,430.52H246.86l-7.35,24.91h-47.6l56.7-150.86h50.85l56.68,150.86H307.33Zm-9.67-32.62-16.65-54.22L257,397.9Z"/><path class="cls-1" d="M371.58,455.43V304.57h77.69q21.62,0,33,3.71A35.16,35.16,0,0,1,500.72,322q7,10,7,24.44,0,12.56-5.36,21.66a41.73,41.73,0,0,1-14.72,14.77q-6,3.6-16.37,6,8.33,2.77,12.13,5.56,2.58,1.86,7.46,7.93a59.48,59.48,0,0,1,6.53,9.37L520,455.43H467.29l-24.91-46.1q-4.74-9-8.44-11.63a19.57,19.57,0,0,0-11.42-3.5H418.4v61.23ZM418.4,365.7h19.65q3.19,0,12.35-2.06A12.36,12.36,0,0,0,458,358.9a13.94,13.94,0,0,0,2.93-8.74q0-7.31-4.63-11.22T438.88,335H418.4Z"/><path class="cls-1" d="M535.09,304.57h46.62v57l48.82-57h62l-55,56.94L695,455.43H637.6l-31.81-62-24.08,25.23v36.81H535.09Z"/><path class="cls-1" d="M710.33,304.57H835.26v32.21H757.05v24H829.6v30.76H757.05v29.74h80.47v34.17H710.33Z"/><path class="cls-1" d="M852,304.57H993.72v37.25H946.18V455.43H899.57V341.82H852Z"/><path class="cls-1" d="M1016.67,304.57h46.72V455.43h-46.72Z"/><path class="cls-1" d="M1097.14,304.57h43.53l56.8,83.46V304.57h43.94V455.43h-43.94L1141,372.6v82.83h-43.84Z"/><path class="cls-1" d="M1348.22,400.79V369.4h72v64.31q-20.68,14.1-36.58,19.2T1346,458q-26.87,0-43.79-9.16t-26.24-27.27q-9.32-18.1-9.31-41.57,0-24.69,10.19-43a66,66,0,0,1,29.84-27.73Q1322,302,1347.91,302q25,0,37.41,4.53a48.69,48.69,0,0,1,20.58,14q8.17,9.53,12.29,24.13l-45,8a24.39,24.39,0,0,0-9.42-13.07q-6.63-4.53-16.93-4.53-15.33,0-24.44,10.65t-9.1,33.7q0,24.5,9.21,35t25.67,10.5a48.8,48.8,0,0,0,14.92-2.27A80.3,80.3,0,0,0,1379.4,415v-14.2Z"/><path class="cls-1" d="M0,707.52l44.35-2.78q1.44,10.8,5.87,16.47,7.2,9.15,20.58,9.15,10,0,15.38-4.68t5.4-10.85q0-5.87-5.14-10.5t-23.88-8.75Q31.9,688.7,18.83,677.27T5.66,648.14a39.6,39.6,0,0,1,6.74-22q6.74-10.33,20.27-16.25T69.77,604q28.91,0,44.09,10.75T131.92,649L88,651.54q-1.76-10.18-7.36-14.82t-15.48-4.63q-8.13,0-12.25,3.45a10.57,10.57,0,0,0-4.11,8.39,8.4,8.4,0,0,0,3.39,6.48q3.3,3,15.64,5.55,30.57,6.6,43.79,13.33T130.84,686a42.45,42.45,0,0,1,6,22.33,47.85,47.85,0,0,1-8,26.76,50.26,50.26,0,0,1-22.43,18.57Q92,760,70.08,760q-38.49,0-53.31-14.82T0,707.52Z"/><path class="cls-1" d="M154.46,682.1q0-36.95,20.58-57.52T232.35,604q37.66,0,58,20.22t20.37,56.65q0,26.45-8.9,43.37a63.38,63.38,0,0,1-25.72,26.34Q259.31,760,234.21,760q-25.53,0-42.25-8.13t-27.11-25.73Q154.45,708.55,154.46,682.1Zm46.61.21q0,22.85,8.49,32.82t23.1,10q15,0,23.26-9.78t8.23-35.09q0-21.3-8.59-31.13t-23.31-9.83q-14.1,0-22.64,10T201.07,682.31Z"/><path class="cls-1" d="M335.87,606.57h46.62V720.28h72.75v37.15H335.87Z"/><path class="cls-1" d="M574.61,606.57h46.51v89.88A75.6,75.6,0,0,1,617,721.69a54.61,54.61,0,0,1-13.07,20.78A52.08,52.08,0,0,1,585.2,755q-13.58,5-32.62,5a206.81,206.81,0,0,1-24-1.54q-13-1.55-21.77-6.12a54.57,54.57,0,0,1-16-13A47.76,47.76,0,0,1,480.86,722q-4.32-14.4-4.32-25.5V606.57h46.51v92q0,12.35,6.84,19.28t19,6.94q12,0,18.88-6.84t6.85-19.38Z"/><path class="cls-1" d="M641.39,606.57H783.08v37.25H735.54V757.43H688.93V643.82H641.39Z"/><path class="cls-1" d="M806,606.57h46.72V757.43H806Z"/><path class="cls-1" d="M880.33,682.1q0-36.95,20.58-57.52T958.22,604q37.66,0,58,20.22t20.38,56.65q0,26.45-8.91,43.37A63.32,63.32,0,0,1,1002,750.58Q985.18,760,960.08,760q-25.53,0-42.24-8.13t-27.12-25.73Q880.33,708.55,880.33,682.1Zm46.61.21q0,22.85,8.49,32.82t23.1,10q15,0,23.26-9.78T990,680.25q0-21.3-8.59-31.13t-23.31-9.83q-14.1,0-22.64,10T926.94,682.31Z"/><path class="cls-1" d="M1062.05,606.57h43.53l56.8,83.46V606.57h43.94V757.43h-43.94l-56.49-82.83v82.83h-43.84Z"/><path class="cls-1" d="M1229.16,707.52l44.36-2.78q1.44,10.8,5.86,16.47,7.2,9.15,20.58,9.15,10,0,15.39-4.68t5.4-10.85q0-5.87-5.15-10.5t-23.87-8.75q-30.66-6.89-43.73-18.31t-13.18-29.13a39.6,39.6,0,0,1,6.74-22q6.75-10.33,20.28-16.25t37.09-5.92q28.92,0,44.1,10.75T1361.09,649l-43.94,2.57q-1.76-10.18-7.36-14.82t-15.49-4.63q-8.13,0-12.24,3.45a10.55,10.55,0,0,0-4.12,8.39,8.38,8.38,0,0,0,3.4,6.48q3.29,3,15.64,5.55,30.55,6.6,43.78,13.33T1360,686a42.44,42.44,0,0,1,6,22.33,47.84,47.84,0,0,1-8,26.76,50.26,50.26,0,0,1-22.43,18.57q-14.41,6.33-36.33,6.33-38.49,0-53.3-14.82T1229.16,707.52Z"/></g></g></svg>