<svg xmlns="http://www.w3.org/2000/svg" viewBox="0 0 691.24 226.41"><defs><style>.cls-1{fill:#231815;}.cls-2{fill:#636762;}.cls-3{fill:#0075be;}</style></defs><title>logo</title><g id="レイヤー_2" data-name="レイヤー 2"><g id="レイヤー_1-2" data-name="レイヤー 1"><path class="cls-1" d="M92.37,212.28h8.74v5.55h-16V192.59h7.3Z"/><path class="cls-1" d="M125.66,209.26c0,5.83-5.35,9.14-11.49,9.14s-11.5-3.28-11.5-9.14,5.36-9.17,11.5-9.17S125.66,203.4,125.66,209.26Zm-15.84,0c0,2.18,1.6,3.85,4.35,3.85s4.35-1.67,4.35-3.85-1.6-3.88-4.35-3.88S109.82,207.15,109.82,209.26Z"/><path class="cls-1" d="M125.18,200.66H133l5.1,8.8,5-8.8h7.7l-15.29,25.75H127.9l6.51-10.92Z"/><path class="cls-1" d="M171.69,217.83h-6.77v-1.9h-.08c-1.19,1.7-3.53,2.47-5.76,2.47a9.17,9.17,0,1,1-.08-18.31,8.22,8.22,0,0,1,5.92,2.24v-1.67h6.77Zm-15.26-8.57c0,2.18,1.6,3.85,4.36,3.85s4.35-1.67,4.35-3.85-1.6-3.88-4.35-3.88S156.43,207.15,156.43,209.26Z"/><path class="cls-1" d="M183,217.83h-6.77V190H183Z"/><path class="cls-1" d="M194.83,217.83h-6.77V205.68h-2.2v-5h2.2V195.5h6.77v5.16h3.83v5h-3.83Z"/><path class="cls-1" d="M200.26,200.66h7.81l5.1,8.8,5-8.8h7.7l-15.29,25.75H203l6.51-10.92Z"/><path class="cls-1" d="M239.66,192.59h7.18l5.69,13.49,6-13.49h7.26l4.24,25.24h-7.29l-2-14.53h-.08l-6.73,14.53H251l-6.44-14.53h-.07l-2.35,14.53H234.9Z"/><path class="cls-1" d="M294.61,217.83h-6.77v-1.9h-.07c-1.19,1.7-3.54,2.47-5.77,2.47a9.17,9.17,0,1,1-.07-18.31,8.2,8.2,0,0,1,5.91,2.24v-1.67h6.77Zm-15.25-8.57c0,2.18,1.6,3.85,4.35,3.85s4.36-1.67,4.36-3.85-1.6-3.88-4.36-3.88S279.36,207.15,279.36,209.26Z"/><path class="cls-1" d="M305.89,203.47H306a6.83,6.83,0,0,1,6.18-3.05h1.3v5.86a6,6,0,0,0-2.86-.57c-3.76,0-4.69,2.25-4.69,5.19v6.93h-6.77V200.66h6.77Z"/><path class="cls-1" d="M322.74,206.85l7-6.19H339l-9.57,7.93,10.16,9.24h-9.49l-7.4-7v7H316V190h6.77Z"/><path class="cls-1" d="M359.69,210.27H345.44c0,2.47,1.45,3.81,4.24,3.81a3.47,3.47,0,0,0,3.23-1.57h6.51c-1.07,4.05-5.35,5.89-9.71,5.89-6.32,0-11-3.21-11-9.14,0-5.72,4.36-9.17,10.57-9.17,6.62,0,10.46,3.68,10.46,9.54Zm-6.29-3.52a3.75,3.75,0,0,0-3.83-2.71c-2,0-3.61.94-4,2.71Z"/><path class="cls-1" d="M370.18,217.83h-6.77V205.68h-2.2v-5h2.2V195.5h6.77v5.16H374v5h-3.83Z"/><path class="cls-1" d="M384.84,194.06a3.82,3.82,0,1,1-3.8-3.42A3.64,3.64,0,0,1,384.84,194.06Zm-.41,23.77h-6.77V200.66h6.77Z"/><path class="cls-1" d="M395.66,202.87h.08c1.56-2.08,3.46-2.78,6.1-2.78,5.13,0,7.18,2.91,7.18,7.13v10.61h-6.77v-8.37c0-1.64.3-4.52-3.05-4.52-2.76,0-3.54,1.84-3.54,4v8.9h-6.77V200.66h6.77Z"/><path class="cls-1" d="M433.69,216.16c0,7.3-4,10.25-11.05,10.25-4.39,0-10.27-2-10.87-6.57h7.59a2.19,2.19,0,0,0,1.27,1.31,4.8,4.8,0,0,0,1.93.4c3.65,0,4.35-2.14,4.35-4.92v-.8a8.37,8.37,0,0,1-6.06,2.34c-5.58,0-9.41-3.82-9.41-8.77s3.94-9.31,9.78-9.31a6.84,6.84,0,0,1,5.62,2.37h.07v-1.8h6.78Zm-15.26-7c0,2.17,1.6,3.85,4.36,3.85s4.35-1.68,4.35-3.85-1.6-3.89-4.35-3.89S418.43,207,418.43,209.13Z"/><path class="cls-1" d="M460.29,199.08a8.2,8.2,0,0,0-4.84-1.67c-1.34,0-3.12.7-3.12,2.11s2,2,3.23,2.41l1.86.5c3.91,1,6.92,2.81,6.92,6.9a8.14,8.14,0,0,1-2.9,6.8,13.23,13.23,0,0,1-8,2.37,18.65,18.65,0,0,1-9.86-2.88l3.13-5.29a10.54,10.54,0,0,0,6.47,2.62c1.71,0,3.53-.77,3.53-2.55s-2.86-2.48-4.42-2.88c-4.58-1.17-7.59-2.24-7.59-7.13,0-5.12,4.05-8.47,9.67-8.47a20.89,20.89,0,0,1,8.78,2.07Z"/><path class="cls-1" d="M490,209.26c0,5.83-5.36,9.14-11.5,9.14s-11.5-3.28-11.5-9.14,5.36-9.17,11.5-9.17S490,203.4,490,209.26Zm-15.85,0c0,2.18,1.6,3.85,4.35,3.85s4.35-1.67,4.35-3.85-1.6-3.88-4.35-3.88S474.13,207.15,474.13,209.26Z"/><path class="cls-1" d="M499.8,217.83H493V190h6.77Z"/><path class="cls-1" d="M510.92,200.66v9.17c0,2.18.6,3.72,3.39,3.72s3.39-1.54,3.39-3.72v-9.17h6.77V211c0,5.66-4.43,7.4-10.16,7.4s-10.16-1.74-10.16-7.4V200.66Z"/><path class="cls-1" d="M536.19,217.83h-6.77V205.68h-2.2v-5h2.2V195.5h6.77v5.16H540v5h-3.83Z"/><path class="cls-1" d="M550.85,194.06a3.82,3.82,0,1,1-3.8-3.42A3.64,3.64,0,0,1,550.85,194.06Zm-.41,23.77h-6.78V200.66h6.78Z"/><path class="cls-1" d="M576.48,209.26c0,5.83-5.36,9.14-11.5,9.14s-11.49-3.28-11.49-9.14,5.35-9.17,11.49-9.17S576.48,203.4,576.48,209.26Zm-15.85,0c0,2.18,1.6,3.85,4.35,3.85s4.36-1.67,4.36-3.85-1.6-3.88-4.36-3.88S560.63,207.15,560.63,209.26Z"/><path class="cls-1" d="M586.3,202.87h.08c1.56-2.08,3.46-2.78,6.1-2.78,5.13,0,7.18,2.91,7.18,7.13v10.61h-6.77v-8.37c0-1.64.29-4.52-3-4.52-2.76,0-3.54,1.84-3.54,4v8.9h-6.77V200.66h6.77Z"/><path class="cls-1" d="M615.25,205.08a9,9,0,0,0-3.65-.84c-.78,0-2.12.3-2.12,1.17,0,1.17,2.12,1.34,3,1.51,3.17.57,5.55,1.91,5.55,5.09,0,4.52-4.58,6.39-9,6.39a16.09,16.09,0,0,1-7.7-2l2.46-4.25a11.64,11.64,0,0,0,5.35,1.74c.86,0,2.12-.37,2.12-1.31,0-1.34-2.12-1.4-4.24-1.91s-4.24-1.44-4.24-4.52c0-4.22,4.24-6.09,8.41-6.09a16.71,16.71,0,0,1,6.29,1.1Z"/><path class="cls-2" d="M649,111.12l42.25-57.54H659L635.62,87.33,612.35,53.58H580l42.25,57.34v49.91h.08v4.73a661.79,661.79,0,0,0-85.43-22.31V73.33h38.75V53.58H471.39V73.33h38.75v65.15c-17.1-2.76-34.79-5.09-53-6.94v-78h-.06a19.56,19.56,0,0,1-26.56,0h-.13v75.61q-12.37-.91-25-1.55V53.58H378.67v65.56L321.75,53.58H297.17v74.34q-12.71.7-25.12,1.71v-76h-.11a19.56,19.56,0,0,1-26.56,0h-.08v78.6q-14.22,1.56-28,3.53l-2.39-5.27q-7.27-16.11-15.38-19.74Q218,102.18,218,84.44a28.73,28.73,0,0,0-9.72-21.84q-9.74-9-25.27-9H135.24v98.33A537.44,537.44,0,0,0,83,168.19v-9.6h0V73.33h38.75V53.58H17.53V73.24H56.4V179.08h-.07v.1C33.68,189.51,14.66,201.06,0,213.56c1.08-.66,2.18-1.31,3.3-2l1.52-.88,1.84-1.06,2-1.09,1.49-.83c.74-.41,1.5-.81,2.26-1.22l1.25-.67,2.55-1.32,1-.54c.93-.48,1.88-.95,2.82-1.42l.83-.41c1-.5,2-1,3-1.49l.67-.33,3.27-1.54.51-.24q1.72-.81,3.48-1.59l.38-.17,3.65-1.62.28-.12c1.27-.55,2.54-1.1,3.83-1.64l.16-.07c1.32-.56,2.64-1.11,4-1.65l.09,0L48.32,190h0q6.28-2.49,12.87-4.86h0q10.55-3.8,21.82-7.29l.06,0q7.74-2.4,15.82-4.64l.5-.14q8.08-2.25,16.5-4.34l.06,0q4.2-1,8.46-2l.38-.09q8.53-2,17.38-3.84l.26-.05q4.46-.93,9-1.81h0q5.24-1,10.54-2l.17,0c2.51-.46,5-.9,7.57-1.33l1.21-.21q7.78-1.32,15.76-2.51l1.71-.26c18.27-2.7,37.23-4.91,56.75-6.58h.14q25.32-2.16,51.83-3.09h0q13.24-.47,26.75-.59H324q5.1,0,10.22-.05h1.37c3.38,0,6.76,0,10.16.05q5.88.06,11.71.18h.08q24.35.51,47.9,2.07h0q6.17.41,12.27.88l.53,0q19.81,1.54,38.92,3.79l.59.08q5.89.69,11.69,1.45l2.4.32q9.28,1.23,18.37,2.63l1,.15q9.57,1.49,18.89,3.14h.07q14.46,2.58,28.27,5.54h0q4.47,1,8.87,2l.16,0q4.32,1,8.57,2l.36.08c2.77.67,5.51,1.35,8.24,2l.56.14c2.65.67,5.27,1.36,7.87,2.05l.83.22q3.76,1,7.47,2.05l1.1.32c2.37.67,4.71,1.34,7,2l1.43.43q3.3,1,6.56,2l1.78.57c2,.64,4.06,1.28,6.06,1.94l2.14.71c1.86.62,3.72,1.23,5.55,1.86l2.53.89c1.67.59,3.35,1.17,5,1.77l3,1.09c1.47.55,3,1.09,4.41,1.64,1.16.44,2.3.89,3.45,1.34s2.52,1,3.75,1.47c1.42.56,2.81,1.14,4.2,1.71.94.39,1.91.77,2.84,1.17q3.48,1.46,6.86,3v-40.4h0ZM162,145.55V117.33h7.58a14.35,14.35,0,0,1,9.83,4.2q4.48,4.13,10.89,18.48Q175.8,142.56,162,145.55Zm24.58-51.14q-3.91,3.16-10.6,3.17H162V73.33h13.37q15.13,0,15.13,12Q190.49,91.25,186.57,94.41Zm137.35,32.4V92.12l29.41,34.26Q338.48,126.38,323.92,126.81Z"/><path class="cls-3" d="M275.54,16.85A16.85,16.85,0,1,1,258.69,0,16.86,16.86,0,0,1,275.54,16.85Z"/><path class="cls-3" d="M368,16.85A16.85,16.85,0,1,1,351.12,0,16.85,16.85,0,0,1,368,16.85Z"/><path class="cls-3" d="M460.68,16.85A16.85,16.85,0,1,1,443.83,0,16.86,16.86,0,0,1,460.68,16.85Z"/></g></g></svg>