<svg xmlns="http://www.w3.org/2000/svg" viewBox="0 0 1570.8 445.29"><defs><style>.cls-1{fill:#333;}</style></defs><title>アセット 6</title><g id="レイヤー_2" data-name="レイヤー 2"><g id="レイヤー_1-2" data-name="レイヤー 1"><path class="cls-1" d="M69.33,57V81.66H38.13v34.48H76.46v24.65H8.67V2.5H72.8V27H38.13V57Z"/><path class="cls-1" d="M115.56,115.37l-3.66,25.42H82.43L108.05,2.5h37.17l26,138.29H140.79l-3.47-25.42Zm10.59-89.75-8.47,66.63H135Z"/><path class="cls-1" d="M224.76,47V36c0-8.09-3.28-12.52-9.44-12.52-6,0-9.24,3.46-9.24,9.63,0,7.89,2.31,10.78,19.06,25.61,23.88,21,30.24,31.2,30.24,49.5,0,22.53-13.67,35.05-38.13,35.05-18.3,0-32.17-6.35-37.75-17.14-3.08-6.16-4.05-11-4.05-22.73V93H205.5v12.72c0,9.63,3.46,14.25,10.4,14.25,6.16,0,9.63-3.85,9.63-10.59,0-9.44-3.85-15.22-16.76-26-25-20.6-32.16-31.39-32.16-48.72C176.61,13.1,190.67,0,214.17,0c18.68,0,33.31,8.67,37.17,22,1.34,5.2,1.73,10,1.92,25Z"/><path class="cls-1" d="M312.39,140.79H283.88V82.24L259,2.5H288.7l9.63,43.34L308,2.5h30.43l-26,79.74Z"/><path class="cls-1" d="M424.67,140.79H395V2.5h29.66Z"/><path class="cls-1" d="M525.59,140.79H492.08L472.24,65.48v75.31H443.16V2.5H475.9l20,74V2.5h29.66Z"/><path class="cls-1" d="M602.63,58.36V82.43H573.55v58.36H543.89V2.5h63v25H573.55V58.36Z"/><path class="cls-1" d="M618.23,44.68c0-17.52,2.31-27.15,8.09-33.89S643.84,0,657.33,0c15.79,0,27.73,6.16,33.89,17.72,3.66,6.93,4.43,11.75,4.43,26.58V94.37c0,19.07-1.15,26.2-5.2,32.74-6.55,10.21-18.68,16.18-33.32,16.18-15.79,0-29.08-6-34.09-15.6-2.89-5.2-3.46-8.09-4.23-19.84-.39-5.39-.58-10.78-.58-13.48Zm48.73,0C667,27,665,22.73,657.13,22.73c-3.85,0-7.12,2.12-8.09,5.39-1.15,3.27-1.15,3.66-1.34,16.56V94.37c.19,16.76.19,17.14,1.34,20,1.54,3.85,4.05,5.78,7.9,5.78,4,0,6.93-1.73,8.48-5.2,1-2.5,1.15-5,1.54-20.61Z"/><path class="cls-1" d="M820.26,140.79H791.37V49.11l-16.18,91.68h-18.1L741.3,49.11v91.68H712.6V2.5h43.72l10.4,60.67L777.5,2.5h42.76Z"/><path class="cls-1" d="M863.21,115.37l-3.66,25.42H830.08L855.7,2.5h37.17l26,138.29H888.44L885,115.37ZM873.8,25.62l-8.47,66.63h17.33Z"/><path class="cls-1" d="M976.26,140.79H946.8v-114H920.41V2.5h82.05V26.77h-26.2Z"/><path class="cls-1" d="M1042.71,140.79h-29.66V2.5h29.66Z"/><path class="cls-1" d="M1059.85,44.68c0-17.52,2.31-27.15,8.09-33.89S1085.47,0,1099,0c15.79,0,27.73,6.16,33.89,17.72,3.66,6.93,4.43,11.75,4.43,26.58V94.37c0,19.07-1.15,26.2-5.2,32.74-6.54,10.21-18.68,16.18-33.32,16.18-15.79,0-29.08-6-34.09-15.6-2.88-5.2-3.46-8.09-4.23-19.84-.39-5.39-.58-10.78-.58-13.48Zm48.73,0c0-17.72-1.93-21.95-9.83-21.95-3.85,0-7.12,2.12-8.08,5.39-1.16,3.27-1.16,3.66-1.35,16.56V94.37c.19,16.76.19,17.14,1.35,20,1.54,3.85,4,5.78,7.89,5.78,4,0,6.94-1.73,8.48-5.2,1-2.5,1.15-5,1.54-20.61Z"/><path class="cls-1" d="M1236.65,140.79h-33.51L1183.3,65.48v75.31h-29.08V2.5H1187l20,74V2.5h29.66Z"/><path class="cls-1" d="M1327.75,115.37l-3.66,25.42h-29.47L1320.24,2.5h37.17l26,138.29H1353l-3.47-25.42Zm10.59-89.75-8.47,66.63h17.33Z"/><path class="cls-1" d="M1475.47,140.79H1442l-19.84-75.31v75.31H1393V2.5h32.74l20,74V2.5h29.66Z"/><path class="cls-1" d="M1535.75,2.5c10.4,0,19.26,2.7,24.85,7.52,4.81,4,8.09,11.74,9.24,22.14.58,5.2,1,24.27,1,47,0,26.58-.57,34.66-2.5,42-4.24,14.06-13.1,19.65-31.59,19.65h-43V2.5Zm-9.24,116.72c14.25-.77,14.44-1.35,14.83-44.3-.2-20.22-.58-32-.77-35.63-.58-11.36-2.89-14.06-12.33-14.64h-5.39v94.57Z"/><path class="cls-1" d="M56.43,291.79H18.87L0,153.5H29.85l7.9,92.26,9.63-92.26H76.85Z"/><path class="cls-1" d="M111.13,266.37l-3.66,25.42H78L103.62,153.5h37.17l26,138.29H136.36l-3.47-25.42Zm10.59-89.75-8.47,66.63h17.33Z"/><path class="cls-1" d="M241.71,267.33v24.46H176.42V153.5h29.66V267.33Z"/><path class="cls-1" d="M329.14,254.42a123.64,123.64,0,0,1-1,12.72c-1.15,10.2-4.81,16.37-12.71,21.18-6.16,3.85-15,6-24.65,6-16.76,0-30.05-6.55-35.63-17.52-2.7-5-3.85-12.14-3.85-22.35V153.5H281V254.42c0,12,2.11,15.8,9.05,15.8,6.55,0,9.05-4.24,9.05-15.8V153.5h30Z"/><path class="cls-1" d="M407.53,208v24.65h-31.2v34.48h38.33v24.65h-67.8V153.5H411V178H376.33v30Z"/><path class="cls-1" d="M502.09,266.37l-3.66,25.42H469L494.58,153.5h37.17l26,138.29H527.32l-3.46-25.42Zm10.6-89.75-8.48,66.63h17.33Z"/><path class="cls-1" d="M649.81,291.79H616.3l-19.84-75.31v75.31H567.38V153.5h32.74l20,74v-74h29.66Z"/><path class="cls-1" d="M710.09,153.5c10.4,0,19.26,2.7,24.85,7.52,4.81,4,8.09,11.74,9.24,22.14.58,5.2,1,24.27,1,47,0,26.58-.58,34.66-2.51,42-4.23,14.06-13.09,19.65-31.58,19.65H668.11V153.5Zm-9.24,116.72c14.25-.77,14.44-1.35,14.83-44.3-.19-20.22-.58-32-.77-35.63-.58-11.36-2.89-14.06-12.33-14.64h-5.39v94.57Z"/><path class="cls-1" d="M840.29,207.62h18.87V153.5h29.66V291.79H859.16v-57.2H840.29v57.2H810.63V153.5h29.66Z"/><path class="cls-1" d="M984.16,254.42a124.1,124.1,0,0,1-1,12.72c-1.15,10.2-4.81,16.37-12.71,21.18-6.16,3.85-15,6-24.65,6-16.76,0-30-6.55-35.63-17.52-2.7-5-3.85-12.14-3.85-22.35V153.5H936V254.42c0,12,2.12,15.8,9,15.8,6.55,0,9.05-4.24,9.05-15.8V153.5h30Z"/><path class="cls-1" d="M1109.54,291.79h-28.89V200.11l-16.18,91.68h-18.11l-15.79-91.68v91.68h-28.69V153.5h43.71l10.4,60.67,10.79-60.67h42.76Z"/><path class="cls-1" d="M1152.49,266.37l-3.66,25.42h-29.47L1145,153.5h37.17l26,138.29h-30.43l-3.47-25.42Zm10.59-89.75-8.48,66.63h17.34Z"/><path class="cls-1" d="M1300.21,291.79h-33.52l-19.83-75.31v75.31h-29.09V153.5h32.75l20,74v-74h29.66Z"/><path class="cls-1" d="M84.94,387.13v22.72c0,10.21-2.89,18.88-8.29,24.27-6.93,7.13-18.1,11.17-30.62,11.17-17,0-29.08-6.93-34.67-19.64-2.69-6.36-4-14.83-4-27V339.94c0-10.78,3.47-20.8,9.24-26.77C23.5,306,34.09,302,45.45,302c23.31,0,39.49,13.87,39.49,33.9v17.33H55.28V339.94c0-10.59-2.7-15-9.25-15-4.24,0-7.32,2.7-8.47,7.12-.2,1.35-.2,1.35-.58,13.87v53.93c0,18.49,1.54,22.34,9.63,22.34,6.74,0,8.67-3.27,8.67-15v-20Z"/><path class="cls-1" d="M100,346.68c0-17.52,2.31-27.15,8.08-33.89s17.53-10.79,31-10.79c15.8,0,27.74,6.16,33.9,17.72,3.66,6.93,4.43,11.75,4.43,26.58v50.07c0,19.07-1.16,26.2-5.2,32.74-6.55,10.21-18.68,16.18-33.32,16.18-15.79,0-29.08-6-34.09-15.6-2.89-5.2-3.47-8.09-4.24-19.84-.38-5.39-.57-10.78-.57-13.48Zm48.72,0c0-17.72-1.92-21.95-9.82-21.95-3.85,0-7.13,2.11-8.09,5.39-1.15,3.27-1.15,3.66-1.35,16.56v49.69c.2,16.76.2,17.14,1.35,20,1.54,3.85,4,5.78,7.9,5.78,4,0,6.93-1.73,8.47-5.2,1-2.5,1.16-5,1.54-20.61Z"/><path class="cls-1" d="M276.76,442.79H243.25l-19.84-75.31v75.31H194.33V304.5h32.74l20,74v-74h29.66Z"/><path class="cls-1" d="M377.48,442.79H344l-19.83-75.31v75.31H295.05V304.5h32.74l20,74v-74h29.65Z"/><path class="cls-1" d="M456.45,359v24.65h-31.2v34.48h38.33v24.65h-67.8V304.5h64.14V329H425.25V359Z"/><path class="cls-1" d="M526,442.79H496.51v-114H470.12V304.5h82v24.27H526Z"/><path class="cls-1" d="M592.42,442.79H562.76V304.5h29.66Z"/><path class="cls-1" d="M609.56,346.68c0-17.52,2.31-27.15,8.09-33.89s17.53-10.79,31-10.79c15.79,0,27.73,6.16,33.9,17.72,3.66,6.93,4.43,11.75,4.43,26.58v50.07c0,19.07-1.16,26.2-5.2,32.74-6.55,10.21-18.69,16.18-33.32,16.18-15.8,0-29.09-6-34.09-15.6-2.89-5.2-3.47-8.09-4.24-19.84-.39-5.39-.58-10.78-.58-13.48Zm48.73,0c0-17.72-1.93-21.95-9.82-21.95-3.85,0-7.13,2.11-8.09,5.39-1.16,3.27-1.16,3.66-1.35,16.56v49.69c.19,16.76.19,17.14,1.35,20,1.54,3.85,4,5.78,7.89,5.78,4.05,0,6.94-1.73,8.48-5.2,1-2.5,1.15-5,1.54-20.61Z"/><path class="cls-1" d="M786.36,442.79H752.85L733,367.48v75.31H703.93V304.5h32.74l20,74v-74h29.66Z"/><path class="cls-1" d="M827.19,442.79H802.93V412.36h24.26Z"/></g></g></svg>